<svg width="30" height="29" viewBox="0 0 30 29" fill="none" xmlns="http://www.w3.org/2000/svg">
<path fill-rule="evenodd" clip-rule="evenodd" d="M6.00448 11.9956L13.5806 4.4195L14.5234 5.3623L6.94729 12.9384L6.00448 11.9956Z" fill="white"/>
<path fill-rule="evenodd" clip-rule="evenodd" d="M8.51855 14.5096L16.0947 6.93341L17.0375 7.87622L9.46136 15.4524L8.51855 14.5096Z" fill="white"/>
<path fill-rule="evenodd" clip-rule="evenodd" d="M13.8612 19.8523L21.4373 12.2762L22.3801 13.219L14.804 20.7951L13.8612 19.8523Z" fill="white"/>
<path fill-rule="evenodd" clip-rule="evenodd" d="M16.3752 22.3662L23.9514 14.7901L24.8942 15.7329L17.3181 23.3091L16.3752 22.3662Z" fill="white"/>
<path fill-rule="evenodd" clip-rule="evenodd" d="M16.3753 22.3665C13.7602 24.9816 9.52968 24.991 6.92619 22.3875C4.32269 19.7841 4.33212 15.5535 6.94723 12.9384L6.00443 11.9956C2.86628 15.1337 2.85498 20.2104 5.97917 23.3346C9.10337 26.4588 14.18 26.4475 17.3181 23.3093L16.3753 22.3665Z" fill="white"/>
<path fill-rule="evenodd" clip-rule="evenodd" d="M21.4373 12.2762L22.3801 13.219C24.8209 10.7782 24.8297 6.8297 22.3998 4.39978C19.9698 1.96985 16.0214 1.97864 13.5806 4.41942L14.5234 5.36223C16.4411 3.44447 19.5435 3.43756 21.4528 5.34679C23.362 7.25602 23.3551 10.3584 21.4373 12.2762Z" fill="white"/>
<path fill-rule="evenodd" clip-rule="evenodd" d="M8.5188 14.51C6.77539 16.2534 6.76911 19.0738 8.50477 20.8094C10.2404 22.5451 13.0608 22.5388 14.8042 20.7954L13.8614 19.8526C12.641 21.073 10.6668 21.0774 9.45179 19.8624C8.23682 18.6475 8.24122 16.6732 9.46161 15.4528L8.5188 14.51Z" fill="white"/>
</svg>
