<svg width="26" height="26" viewBox="0 0 26 26" fill="none" xmlns="http://www.w3.org/2000/svg">
<g clip-path="url(#clip0_20_1965)">
<path d="M18.9905 15.8236C18.9905 16.9156 19.3012 17.3511 20.1137 17.3511C21.9246 17.3511 23.0777 15.0436 23.0777 11.206C23.0777 5.3404 18.8033 2.5324 13.4668 2.5324C7.97686 2.5324 2.98356 6.214 2.98356 13.1716C2.98356 19.8172 7.35156 23.4364 14.0596 23.4364C16.3372 23.4364 17.866 23.1868 20.2047 22.4068L20.7065 24.4959C18.3977 25.246 15.9303 25.4631 14.0284 25.4631C5.22996 25.4631 0.517456 20.6271 0.517456 13.1703C0.517456 5.6511 5.97876 0.534302 13.498 0.534302C21.3292 0.534302 25.4775 5.2143 25.4775 10.9551C25.4775 15.8223 23.95 19.5351 19.1452 19.5351C16.9599 19.5351 15.526 18.6615 15.3388 16.7258C14.7772 18.8786 13.2796 19.5351 11.2503 19.5351C8.53586 19.5351 6.25826 17.4434 6.25826 13.2327C6.25826 8.9895 8.25636 6.3687 11.8444 6.3687C13.7476 6.3687 14.9332 7.1175 15.461 8.3031L16.3671 6.6495H18.9879V15.8236H18.9905ZM15.1542 11.7052C15.1542 9.9905 13.8737 9.2716 12.8129 9.2716C11.6585 9.2716 10.3806 10.2063 10.3806 12.9532C10.3806 15.1372 11.3478 16.354 12.8129 16.354C13.8425 16.354 15.1542 15.6988 15.1542 13.8892V11.7052Z" fill="#31BDBE"/>
</g>
<defs>
<clipPath id="clip0_20_1965">
<rect width="26" height="26" fill="white"/>
</clipPath>
</defs>
</svg>
