<svg width="26" height="26" viewBox="0 0 26 26" fill="none" xmlns="http://www.w3.org/2000/svg">
<path d="M17.3333 10.8333C17.3333 11.9826 16.8767 13.0848 16.0641 13.8975C15.2514 14.7101 14.1492 15.1667 13 15.1667C11.8507 15.1667 10.7485 14.7101 9.93583 13.8975C9.12317 13.0848 8.66663 11.9826 8.66663 10.8333C8.66663 9.68406 9.12317 8.58186 9.93583 7.7692C10.7485 6.95655 11.8507 6.5 13 6.5C14.1492 6.5 15.2514 6.95655 16.0641 7.7692C16.8767 8.58186 17.3333 9.68406 17.3333 10.8333Z" fill="#31BDBE"/>
<path fill-rule="evenodd" clip-rule="evenodd" d="M12.558 23.8246C6.78 23.5928 2.16663 18.8348 2.16663 13C2.16663 7.01671 7.01671 2.16663 13 2.16663C18.9832 2.16663 23.8333 7.01671 23.8333 13C23.8333 18.9832 18.9832 23.8333 13 23.8333C12.9505 23.8336 12.901 23.8336 12.8515 23.8333C12.7535 23.8333 12.6555 23.83 12.558 23.8246ZM6.04821 19.8358C5.96721 19.6032 5.93964 19.3553 5.96755 19.1106C5.99545 18.8659 6.07811 18.6306 6.2094 18.4222C6.34068 18.2138 6.51722 18.0376 6.7259 17.9068C6.93458 17.776 7.17005 17.6938 7.41483 17.6664C11.6377 17.199 14.3883 17.2412 18.5905 17.6762C18.8356 17.7017 19.0717 17.7828 19.2807 17.9134C19.4897 18.0439 19.6662 18.2204 19.7967 18.4295C19.9271 18.6385 20.0082 18.8746 20.0337 19.1197C20.0591 19.3648 20.0283 19.6125 19.9436 19.8439C21.7446 18.0217 22.7532 15.562 22.75 13C22.75 7.61525 18.3847 3.24996 13 3.24996C7.61525 3.24996 3.24996 7.61525 3.24996 13C3.24996 15.6628 4.31758 18.0765 6.04821 19.8358Z" fill="#31BDBE"/>
</svg>
