<svg width="24" height="22" viewBox="0 0 24 22" fill="none" xmlns="http://www.w3.org/2000/svg">
<g clip-path="url(#clip0_19_1333)">
<path d="M20.8541 4.12492H19.3646V19.9374C19.3646 20.2239 19.3064 20.4924 19.19 20.7431C19.0736 20.9937 18.9146 21.2122 18.7129 21.3984C18.5112 21.5846 18.2745 21.7314 18.003 21.8388C17.7315 21.9462 17.4405 21.9999 17.1302 21.9999H5.21352C4.90319 21.9999 4.61226 21.9462 4.34072 21.8388C4.06918 21.7314 3.83255 21.5846 3.63084 21.3984C3.42912 21.2122 3.27008 20.9937 3.15371 20.7431C3.03733 20.4924 2.97915 20.2239 2.97915 19.9374V4.12492H1.48956V2.74992H7.4479V1.37492C7.4479 1.18156 7.48669 1.00252 7.56427 0.837809C7.64185 0.673096 7.74659 0.529866 7.87848 0.408122C8.01037 0.286377 8.16941 0.186117 8.35561 0.10734C8.54181 0.0285644 8.73577 -0.00724284 8.93748 -8.13802e-05H13.4062C13.6157 -8.13802e-05 13.8097 0.0357259 13.9881 0.10734C14.1665 0.178955 14.3217 0.275635 14.4536 0.39738C14.5855 0.519124 14.6941 0.665934 14.7794 0.837809C14.8648 1.00968 14.9036 1.18872 14.8958 1.37492V2.74992H20.8541V4.12492ZM8.93748 2.74992H13.4062V1.37492H8.93748V2.74992ZM17.875 4.12492H4.46873V19.9374C4.46873 20.1236 4.54243 20.2847 4.68984 20.4208C4.83725 20.5569 5.01181 20.6249 5.21352 20.6249H17.1302C17.3319 20.6249 17.5065 20.5569 17.6539 20.4208C17.8013 20.2847 17.875 20.1236 17.875 19.9374V4.12492ZM8.93748 17.8749H7.4479V6.87492H8.93748V17.8749ZM11.9166 17.8749H10.4271V6.87492H11.9166V17.8749ZM14.8958 17.8749H13.4062V6.87492H14.8958V17.8749Z" fill="#DF6675"/>
</g>
<defs>
<clipPath id="clip0_19_1333">
<rect width="23.8333" height="22" fill="white"/>
</clipPath>
</defs>
</svg>
