<svg width="26" height="26" viewBox="0 0 26 26" fill="none" xmlns="http://www.w3.org/2000/svg">
<path d="M21.9375 4.0625H4.0625C3.63152 4.0625 3.2182 4.2337 2.91345 4.53845C2.6087 4.8432 2.4375 5.25652 2.4375 5.6875V20.3125C2.4375 20.7435 2.6087 21.1568 2.91345 21.4615C3.2182 21.7663 3.63152 21.9375 4.0625 21.9375H21.9375C22.3685 21.9375 22.7818 21.7663 23.0865 21.4615C23.3913 21.1568 23.5625 20.7435 23.5625 20.3125V5.6875C23.5625 5.25652 23.3913 4.8432 23.0865 4.53845C22.7818 4.2337 22.3685 4.0625 21.9375 4.0625ZM21.9375 5.6875V16.123L19.2898 13.4763C19.1389 13.3254 18.9597 13.2057 18.7625 13.124C18.5654 13.0423 18.354 13.0002 18.1406 13.0002C17.9272 13.0002 17.7158 13.0423 17.5186 13.124C17.3215 13.2057 17.1423 13.3254 16.9914 13.4763L14.9602 15.5076L10.4914 11.0388C10.1867 10.7343 9.77353 10.5633 9.34273 10.5633C8.91194 10.5633 8.49878 10.7343 8.19406 11.0388L4.0625 15.1704V5.6875H21.9375ZM4.0625 17.4688L9.34375 12.1875L17.4688 20.3125H4.0625V17.4688ZM21.9375 20.3125H19.7671L16.1109 16.6562L18.1421 14.625L21.9375 18.4214V20.3125ZM14.625 10.1562C14.625 9.9152 14.6965 9.67957 14.8304 9.47915C14.9643 9.27873 15.1547 9.12252 15.3774 9.03027C15.6001 8.93803 15.8451 8.91389 16.0815 8.96092C16.3179 9.00794 16.5351 9.12402 16.7055 9.29446C16.876 9.46491 16.9921 9.68207 17.0391 9.91848C17.0861 10.1549 17.062 10.3999 16.9697 10.6226C16.8775 10.8453 16.7213 11.0357 16.5209 11.1696C16.3204 11.3035 16.0848 11.375 15.8438 11.375C15.5205 11.375 15.2105 11.2466 14.982 11.018C14.7534 10.7895 14.625 10.4795 14.625 10.1562Z" fill="#31BDBE"/>
</svg>
