<svg width="26" height="26" viewBox="0 0 26 26" fill="none" xmlns="http://www.w3.org/2000/svg">
<path d="M13.2463 2.08207C9.3742 2.07191 5.96678 4.07523 4.01932 7.1018C3.93299 7.23637 4.02947 7.4141 4.18943 7.4141H5.97439C6.09627 7.4141 6.21053 7.36078 6.2867 7.26684C6.46443 7.05102 6.65486 6.84281 6.85545 6.64477C7.68318 5.81957 8.64549 5.16957 9.71697 4.71762C10.824 4.25043 12.0021 4.01176 13.2183 4.01176C14.4346 4.01176 15.6127 4.24789 16.7197 4.71762C17.7912 5.16957 18.7535 5.81957 19.5812 6.64477C20.409 7.46996 21.0564 8.43227 21.5109 9.50121C21.9806 10.6082 22.2168 11.7838 22.2168 13C22.2168 14.2162 21.9781 15.3918 21.5109 16.4989C21.059 17.5678 20.409 18.5301 19.5812 19.3553C18.7535 20.1805 17.7912 20.8305 16.7197 21.2825C15.6118 21.7504 14.421 21.9905 13.2183 21.9883C12.0021 21.9883 10.824 21.7496 9.71697 21.2825C8.64759 20.831 7.67584 20.1765 6.85545 19.3553C6.65486 19.1547 6.46697 18.9465 6.2867 18.7332C6.21053 18.6393 6.09373 18.586 5.97439 18.586H4.18943C4.02947 18.586 3.93045 18.7637 4.01932 18.8983C5.96424 21.9172 9.35643 23.918 13.2183 23.918C19.2156 23.918 24.0855 19.0912 24.1465 13.1118C24.2074 7.03578 19.3299 2.0973 13.2463 2.08207ZM10.0298 15.8438V13.9141H2.05713C1.94541 13.9141 1.854 13.8227 1.854 13.711V12.2891C1.854 12.1774 1.94541 12.086 2.05713 12.086H10.0298V10.1563C10.0298 9.98617 10.2278 9.88969 10.3599 9.99633L13.9628 12.8401C13.9871 12.8591 14.0067 12.8834 14.0202 12.9111C14.0337 12.9388 14.0407 12.9692 14.0407 13C14.0407 13.0309 14.0337 13.0613 14.0202 13.089C14.0067 13.1167 13.9871 13.141 13.9628 13.16L10.3599 16.0037C10.2278 16.1079 10.0298 16.0139 10.0298 15.8438Z" fill="#31BDBE"/>
</svg>
