<svg width="26" height="26" viewBox="0 0 26 26" fill="none" xmlns="http://www.w3.org/2000/svg">
<path d="M7.17167 11.6892C8.73167 14.755 11.245 17.2575 14.3108 18.8283L16.6942 16.445C16.9867 16.1525 17.42 16.055 17.7992 16.185C19.0125 16.5858 20.3233 16.8025 21.6667 16.8025C22.2625 16.8025 22.75 17.29 22.75 17.8858V21.6667C22.75 22.2625 22.2625 22.75 21.6667 22.75C11.4942 22.75 3.25 14.5058 3.25 4.33333C3.25 3.7375 3.7375 3.25 4.33333 3.25H8.125C8.72083 3.25 9.20833 3.7375 9.20833 4.33333C9.20833 5.6875 9.425 6.9875 9.82583 8.20083C9.945 8.58 9.85833 9.0025 9.555 9.30583L7.17167 11.6892Z" fill="#31BDBE"/>
</svg>
