<svg width="13" height="14" viewBox="0 0 13 14" fill="none" xmlns="http://www.w3.org/2000/svg">
<path fill-rule="evenodd" clip-rule="evenodd" d="M7.59242 8.41379C6.1605 9.84571 3.83889 9.84571 2.40697 8.41379C0.975048 6.98187 0.975048 4.66027 2.40697 3.22834C3.83889 1.79642 6.1605 1.79642 7.59242 3.22834C9.02434 4.66027 9.02434 6.98187 7.59242 8.41379ZM8.0328 9.79675C6.07258 11.2961 3.25699 11.1494 1.46416 9.3566C-0.488461 7.40398 -0.48846 4.23816 1.46416 2.28553C3.41678 0.332912 6.58261 0.332912 8.53523 2.28553C10.328 4.07828 10.4748 6.8937 8.97558 8.85391L12.5423 12.4206L11.5995 13.3634L8.0328 9.79675Z" fill="#31BDBE"/>
</svg>
